# xmcd CD database file
#
# Track frame offsets:
#	150
#	14675
#	32407
#	48092
#	62770
#	81302
#	108442
#	132932
#	153485
#	171660
#	198595
#	219242
#	238267
#
# Disc length: 3440 seconds
#
# Revision: 0
# Processed by: cddbd v1.5.2PL0 Copyright (c) Steve Scherf et al.
# Submitted via: CDex 1.70beta2
#
DISCID=b60d6e0d
DTITLE=吉田次郎 - In My Life
DYEAR=2000
DGENRE=Jazz
TTITLE0=Softly As In A Morning Sunrise
TTITLE1=My Romance
TTITLE2=Venezuelan Waltz
TTITLE3=Blues For Monk
TTITLE4=Agua De Beber
TTITLE5=A Night In Tunisia
TTITLE6=And I Love Her
TTITLE7=Footprints
TTITLE8=So What
TTITLE9=All Blues
TTITLE10=Too High
TTITLE11=Cocola
TTITLE12=In My Life
EXTD=YEAR: 2000
EXTT0=
EXTT1=
EXTT2=
EXTT3=
EXTT4=
EXTT5=
EXTT6=
EXTT7=
EXTT8=
EXTT9=
EXTT10=
EXTT11=
EXTT12=
PLAYORDER=
